<svg width="78" height="103" viewBox="0 0 78 103" fill="none" xmlns="http://www.w3.org/2000/svg">
<g clip-path="url(#clip0_62_11804)">
<path d="M69.4365 0H7.71517C3.4542 0 0 3.25101 0 7.26134V95.6076C0 99.6179 3.4542 102.869 7.71517 102.869H69.4365C73.6975 102.869 77.1517 99.6179 77.1517 95.6076V7.26134C77.1517 3.25101 73.6975 0 69.4365 0Z" fill="url(#paint0_linear_62_11804)"/>
<path d="M62.2301 71.7818H62.8367C62.9645 71.7818 63.1002 71.7775 63.2437 71.7689C63.3872 71.7603 63.5248 71.7431 63.6565 71.7173C63.7883 71.6916 63.9076 71.6559 64.0146 71.6105C64.1216 71.5651 64.2012 71.5068 64.2533 71.4356C64.2925 71.3815 64.3127 71.3091 64.314 71.2183C64.3153 71.1274 64.3023 71.0279 64.2749 70.9199C64.2475 70.8119 64.2109 70.6983 64.1653 70.5792C64.1196 70.4601 64.0707 70.3447 64.0185 70.233C63.9663 70.1212 63.9148 70.0157 63.8639 69.9162C63.8131 69.8168 63.7707 69.7327 63.7368 69.6639L64.6486 69.2403C64.719 69.3582 64.7888 69.5 64.858 69.6657C64.9271 69.8315 64.9878 70.0028 65.04 70.1796C65.0921 70.3564 65.1345 70.5307 65.1671 70.7026C65.1998 70.8745 65.2161 71.0267 65.2161 71.1593C65.2161 71.3975 65.173 71.6099 65.0869 71.7965C64.9878 72.0126 64.8482 72.19 64.6682 72.3288C64.4881 72.4675 64.2742 72.5712 64.0264 72.64C63.9507 72.6596 63.8561 72.675 63.7426 72.686C63.6291 72.6971 63.5137 72.7057 63.3963 72.7118C63.2789 72.718 63.1673 72.7216 63.0617 72.7229C62.956 72.7241 62.8745 72.7247 62.8171 72.7247H62.2144C62.2063 72.7247 62.1983 72.7246 62.1904 72.7242C62.1706 72.7239 62.1486 72.7235 62.1244 72.7229C62.0748 72.7216 62.0207 72.7161 61.962 72.7063C61.9033 72.6965 61.84 72.6811 61.7722 72.6603C61.7043 72.6394 61.6378 72.6093 61.5726 72.57C61.5387 72.8794 61.4389 73.1759 61.2732 73.4595C61.1075 73.7431 60.8982 74.009 60.6451 74.257C60.392 74.505 60.1083 74.7321 59.7939 74.9384C59.4795 75.1446 59.1567 75.3251 58.8253 75.4798L58.387 74.629C58.5696 74.5406 58.7529 74.4448 58.9369 74.3417C59.1208 74.2385 59.2962 74.1287 59.4632 74.012C59.6302 73.8954 59.7861 73.772 59.9309 73.6419C60.0757 73.5117 60.2009 73.3773 60.3066 73.2385C60.4122 73.0998 60.4957 72.9568 60.557 72.8094C60.6184 72.6621 60.649 72.5111 60.649 72.3564C60.649 72.3367 60.6484 72.3165 60.6471 72.2956C60.6457 72.2747 60.6438 72.2545 60.6412 72.2348V72.2385C60.6229 72.101 60.5923 71.9617 60.5492 71.8205C60.5062 71.6793 60.4599 71.5424 60.4103 71.4098C60.3607 71.2772 60.3111 71.1501 60.2616 71.0286C60.212 70.907 60.1703 70.7971 60.1363 70.6989L61.0756 70.3306C61.1773 70.6179 61.2732 70.8554 61.3632 71.0433C61.4532 71.2311 61.5439 71.3797 61.6352 71.489C61.7265 71.5982 61.8198 71.6744 61.915 71.7173C62.0103 71.7603 62.1153 71.7818 62.2301 71.7818ZM62.9267 74.5627L62.2614 73.9328L62.9345 73.303L63.5998 73.9292L62.9267 74.5627ZM64.406 74.5553L63.7407 73.9292L64.4138 73.2956L65.0791 73.9255L64.406 74.5553ZM63.6741 74.4153L64.2846 74.9899L63.6702 75.5682L63.0597 74.9936L63.6741 74.4153ZM55.2797 71.2772C55.3788 71.3361 55.4982 71.3963 55.6378 71.4577C55.7774 71.5191 55.9222 71.5749 56.0722 71.6253C56.2222 71.6756 56.3696 71.7161 56.5144 71.7468C56.6592 71.7775 56.7864 71.7928 56.896 71.7928C56.9612 71.7928 57.0493 71.7898 57.1601 71.7836C57.271 71.7775 57.3799 71.7603 57.4869 71.7321C57.5939 71.7038 57.6865 71.6596 57.7648 71.5995C57.843 71.5393 57.8835 71.454 57.8861 71.3435C57.8887 71.2428 57.86 71.1292 57.8 71.0028C57.74 70.8763 57.6591 70.745 57.5574 70.6087C57.4556 70.4724 57.3382 70.3355 57.2051 70.198C57.0721 70.0605 56.9338 69.9285 56.7903 69.802C56.6468 69.6756 56.5027 69.5589 56.3579 69.4521C56.2131 69.3453 56.0781 69.2551 55.9528 69.1814L56.5359 68.3674C56.776 68.5221 57.0127 68.6964 57.2462 68.8904C57.4797 69.0844 57.695 69.2913 57.892 69.5111C58.0889 69.7308 58.2598 69.9598 58.4046 70.198C58.5494 70.4362 58.6531 70.6768 58.7157 70.9199C58.7836 71.1925 58.7849 71.4442 58.7197 71.675C58.6544 71.9058 58.537 72.1041 58.3674 72.2698C58.1979 72.4356 57.9826 72.5627 57.7217 72.6511C57.4608 72.7394 57.1686 72.7763 56.8451 72.7615C56.6729 72.7615 56.4981 72.7456 56.3207 72.7137C56.1433 72.6817 55.9691 72.6394 55.7982 72.5866C55.6273 72.5338 55.463 72.4724 55.3051 72.4024C55.1473 72.3324 55.0005 72.2582 54.8649 72.1796L55.2797 71.2772ZM53.0216 67.1556L54.0274 66.8462C54.1578 67.7768 54.2257 68.6473 54.2309 69.4576C54.2361 70.7615 54.2165 71.799 54.1722 72.57L53.1468 72.7174C53.2251 71.5829 53.2486 70.6326 53.2173 69.8665C53.1755 68.8646 53.1103 67.961 53.0216 67.1556ZM46.4196 71.7826C46.4299 71.7821 46.4403 71.7818 46.4509 71.7818H47.2257C47.5492 71.7818 47.8786 71.7529 48.2139 71.6952C48.5491 71.6375 48.8824 71.5614 49.2138 71.4669C49.5451 71.3723 49.8686 71.2637 50.1843 71.1409C50.5 71.0181 50.7987 70.8917 51.0805 70.7615C50.8561 70.7149 50.6474 70.6529 50.4544 70.5755C50.2613 70.4982 50.0787 70.4227 49.9065 70.349C49.7343 70.2753 49.5686 70.2115 49.4095 70.1575C49.2503 70.1034 49.0925 70.0764 48.9359 70.0764C48.8446 70.0764 48.7592 70.0918 48.6796 70.1225C48.6 70.1532 48.5263 70.1918 48.4585 70.2385C48.3906 70.2852 48.33 70.3367 48.2765 70.3932C48.223 70.4497 48.1761 70.5043 48.1356 70.5571C48.0952 70.6099 48.0619 70.6572 48.0358 70.6989C48.0097 70.7407 47.9915 70.7701 47.981 70.7873L47.167 70.2901C47.2557 70.1427 47.3614 69.9997 47.484 69.861C47.6066 69.7222 47.743 69.5982 47.893 69.489C48.043 69.3797 48.2054 69.2925 48.3802 69.2274C48.555 69.1624 48.7403 69.1298 48.9359 69.1298C49.1368 69.1298 49.3364 69.155 49.5347 69.2053C49.733 69.2557 49.9293 69.3189 50.1237 69.395C50.318 69.4711 50.5131 69.554 50.7087 69.6436C50.9044 69.7333 51.102 69.8168 51.3016 69.8941C51.5012 69.9715 51.7028 70.0365 51.9063 70.0893C52.1098 70.1421 52.3185 70.1697 52.5324 70.1722L52.4502 71.1225C52.085 71.287 51.7041 71.4613 51.3075 71.6455C50.9109 71.8297 50.4961 72.0003 50.063 72.1575C49.6299 72.3146 49.1773 72.446 48.705 72.5516C48.2328 72.6572 47.7397 72.7149 47.2257 72.7247H46.4509C46.4403 72.7247 46.4299 72.7244 46.4196 72.7239C46.4092 72.7244 46.3988 72.7247 46.3882 72.7247H46.3569C46.1404 72.7247 45.9421 72.7075 45.7621 72.6732C45.5821 72.6388 45.4177 72.5841 45.269 72.5092C45.1203 72.4344 44.9879 72.3386 44.8718 72.2219C44.7557 72.1053 44.6546 71.9647 44.5685 71.8002C43.851 72.4239 42.7774 72.7358 41.3477 72.7358C40.5363 72.7309 39.8625 72.6351 39.3263 72.4485C38.7902 72.2619 38.3956 71.977 38.1425 71.5939C38.0434 71.4368 37.9723 71.2735 37.9292 71.1041C37.8862 70.9346 37.8647 70.7689 37.8647 70.6068C37.8647 70.4079 37.8907 70.2164 37.9429 70.0322V70.0359C37.9742 69.9156 38.0068 69.8106 38.0408 69.721C38.0747 69.6314 38.106 69.5559 38.1347 69.4945C38.1634 69.4331 38.1882 69.3852 38.209 69.3508C38.2299 69.3164 38.2443 69.2931 38.2521 69.2808L39.0074 69.7265C38.9813 69.7707 38.9513 69.8186 38.9174 69.8702C38.8835 69.9217 38.8515 69.9819 38.8215 70.0507C38.7915 70.1194 38.7661 70.2004 38.7452 70.2937C38.7243 70.3871 38.7139 70.4963 38.7139 70.6216C38.7139 70.7075 38.7308 70.7953 38.7648 70.8849C38.7987 70.9745 38.8417 71.0586 38.8939 71.1372C38.967 71.2526 39.0778 71.3509 39.2266 71.4319C39.3753 71.5129 39.5559 71.5792 39.7686 71.6308C39.9812 71.6823 40.2206 71.7204 40.4867 71.745C40.7528 71.7695 41.0398 71.7818 41.3477 71.7818C41.6268 71.7818 41.8916 71.772 42.1421 71.7523C42.3926 71.7327 42.6254 71.7014 42.8407 71.6584C43.0559 71.6154 43.2503 71.5602 43.4238 71.4927C43.5973 71.4251 43.7479 71.3423 43.8758 71.244C43.9906 71.1605 44.0832 71.0636 44.1536 70.9531C44.2241 70.8426 44.2828 70.7265 44.3297 70.605C44.3767 70.4834 44.4158 70.3588 44.4472 70.2311C44.4785 70.1034 44.5124 69.9807 44.5489 69.8628L45.449 70.0912C45.4151 70.2238 45.3792 70.3557 45.3414 70.4871C45.3036 70.6185 45.2859 70.7542 45.2886 70.8941V70.8904C45.2964 71.0255 45.3212 71.1483 45.3629 71.2588C45.4047 71.3693 45.4692 71.4632 45.5566 71.5405C45.644 71.6179 45.7556 71.6774 45.8912 71.7192C46.0269 71.7609 46.1926 71.7818 46.3882 71.7818C46.3988 71.7818 46.4092 71.7821 46.4196 71.7826ZM49.519 67.8812L48.7716 68.5847L48.0202 67.8775L48.7676 67.174L49.519 67.8812ZM41.5903 68.9899L40.925 69.616L40.2519 68.9862L40.9172 68.3563L41.5903 68.9899ZM43.0696 68.9935L42.4043 69.6234L41.7312 68.9899L42.3965 68.3637L43.0696 68.9935ZM34.7909 67.1556L35.7967 66.8462C35.9271 67.7768 35.9949 68.6473 36.0002 69.4576C36.0054 70.7615 35.9858 71.799 35.9415 72.57L34.9161 72.7174C34.9944 71.5829 35.0179 70.6326 34.9866 69.8665C34.9448 68.8646 34.8796 67.961 34.7909 67.1556ZM32.2119 73.885L31.5466 74.5111L30.8735 73.8813L31.5388 73.2514L32.2119 73.885ZM33.6912 73.8886L33.0259 74.5185L32.3528 73.885L33.0181 73.2588L33.6912 73.8886ZM30.8988 71.7818H31.2335C31.3614 71.7818 31.497 71.7775 31.6405 71.7689C31.784 71.7603 31.9216 71.7431 32.0534 71.7173C32.1852 71.6916 32.3045 71.6559 32.4115 71.6105C32.5185 71.5651 32.598 71.5068 32.6502 71.4356C32.6893 71.3815 32.7096 71.3091 32.7109 71.2183C32.7122 71.1274 32.6991 71.0279 32.6717 70.9199C32.6443 70.8119 32.6078 70.6983 32.5622 70.5792C32.5165 70.4601 32.4676 70.3447 32.4154 70.233C32.3632 70.1212 32.3117 70.0157 32.2608 69.9162C32.2099 69.8168 32.1675 69.7327 32.1336 69.6639L33.0455 69.2403C33.1159 69.3582 33.1857 69.5 33.2548 69.6657C33.324 69.8315 33.3846 70.0028 33.4368 70.1796C33.489 70.3564 33.5314 70.5307 33.564 70.7026C33.5966 70.8745 33.6129 71.0267 33.6129 71.1593C33.6129 71.3975 33.5699 71.6099 33.4838 71.7965C33.3846 72.0126 33.2451 72.19 33.065 72.3288C32.885 72.4675 32.6711 72.5712 32.4232 72.64C32.3476 72.6596 32.253 72.675 32.1395 72.686C32.026 72.6971 31.9106 72.7057 31.7932 72.7118C31.6757 72.718 31.5642 72.7216 31.4586 72.7229C31.3529 72.7241 31.2714 72.7247 31.214 72.7247H30.6113C30.5433 72.7247 30.4802 72.7133 30.422 72.6904C30.2112 72.648 30.0474 72.5661 29.9303 72.4448L29.8481 72.3601L29.766 72.4411C29.5729 72.6204 29.3277 72.71 29.0302 72.71C28.8737 72.71 28.6937 72.6781 28.4902 72.6142C28.3258 72.5651 28.151 72.4964 27.9658 72.408C27.7544 72.3073 27.5705 72.2066 27.414 72.1059C27.3409 72.2091 27.2287 72.3134 27.0774 72.419C26.7721 72.6277 26.4265 72.7321 26.0403 72.7321C26.0081 72.7321 25.977 72.7295 25.9471 72.7245C25.6631 72.7206 25.4033 72.6691 25.1676 72.57C25.1702 72.7738 25.152 72.9825 25.1128 73.1962C25.0737 73.4098 25.0098 73.6148 24.9211 73.8113C24.8324 74.0077 24.7182 74.19 24.5786 74.3583C24.439 74.5265 24.2701 74.667 24.0718 74.78H24.0757C23.9531 74.8586 23.8214 74.9261 23.6805 74.9826C23.5396 75.039 23.3902 75.0857 23.2324 75.1225C23.0745 75.1594 22.9082 75.1882 22.7334 75.2091C22.5586 75.23 22.3734 75.2453 22.1777 75.2551C21.742 75.2551 21.3683 75.206 21.0565 75.1078C20.7447 75.0096 20.474 74.8684 20.2444 74.6842C19.9679 74.446 19.7618 74.1655 19.6261 73.8426C19.4904 73.5197 19.4226 73.179 19.4226 72.8205C19.4226 72.6142 19.437 72.4196 19.4657 72.2367C19.4944 72.0537 19.5374 71.8739 19.5948 71.6971C19.6522 71.5203 19.7252 71.3398 19.814 71.1556C19.9027 70.9715 20.007 70.7738 20.127 70.5626L20.9489 71.1225C20.868 71.26 20.7884 71.4104 20.7101 71.5737C20.6319 71.737 20.5634 71.9064 20.5047 72.082C20.446 72.2576 20.4029 72.4337 20.3755 72.6105C20.3481 72.7873 20.3462 72.9568 20.3697 73.1188C20.3801 73.1778 20.399 73.2484 20.4264 73.3306C20.4538 73.4129 20.4942 73.4982 20.5477 73.5866C20.6012 73.675 20.669 73.7628 20.7512 73.85C20.8334 73.9371 20.9332 74.0145 21.0506 74.082C21.168 74.1495 21.3056 74.2048 21.4635 74.2478C21.6213 74.2907 21.8033 74.3122 22.0094 74.3122H22.076C22.089 74.3122 22.102 74.311 22.1151 74.3085C22.376 74.2963 22.6186 74.2717 22.843 74.2349C23.0674 74.198 23.2689 74.1409 23.4476 74.0636C23.6263 73.9862 23.7796 73.8856 23.9075 73.7616C24.0353 73.6376 24.1344 73.4835 24.2049 73.2993C24.2701 73.1274 24.2969 72.9451 24.2851 72.7523C24.2734 72.5596 24.2342 72.3588 24.1677 72.1501C24.1012 71.9414 24.0144 71.7253 23.9075 71.5019C23.8005 71.2784 23.6857 71.0513 23.5631 70.8205L24.4319 70.3011L24.7684 70.9089C24.8858 71.1274 24.9993 71.2956 25.1089 71.4135C25.2185 71.5313 25.3241 71.6179 25.4259 71.6731C25.5277 71.7284 25.6248 71.7603 25.7175 71.7689C25.8101 71.7775 25.8981 71.7818 25.9816 71.7818C26.0038 71.7818 26.0256 71.783 26.0469 71.7855C26.3469 71.7836 26.6147 71.651 26.8504 71.3877C26.9417 71.2846 27.0343 71.1556 27.1283 71.0009C27.1857 70.9027 27.26 70.7652 27.3513 70.5884L27.4492 70.4042C27.6057 70.112 27.774 69.891 27.954 69.7413C28.1653 69.5645 28.4197 69.4761 28.7171 69.4761C29.0746 69.4761 29.389 69.5878 29.6603 69.8112C29.9682 70.0666 30.1443 70.4165 30.1886 70.861V70.8941L30.1925 70.9052V70.9125C30.1951 70.9199 30.1964 70.9285 30.1964 70.9383V70.9567C30.1964 70.9641 30.1978 70.9727 30.2004 70.9825C30.203 71.0095 30.2056 71.0378 30.2082 71.0672C30.2186 71.163 30.2343 71.2502 30.2551 71.3287C30.3308 71.6234 30.5121 71.772 30.7991 71.7744H30.807C30.8387 71.7744 30.8693 71.7769 30.8988 71.7818ZM29.1633 71.8334C29.3537 71.7818 29.4542 71.6308 29.4646 71.3803C29.4751 71.1667 29.4307 70.9764 29.3316 70.8094C29.2455 70.6645 29.1346 70.5516 28.9989 70.4705C28.8554 70.3871 28.7132 70.3588 28.5723 70.3858C28.4863 70.403 28.361 70.5651 28.1967 70.872L28.0558 71.1372C28.0401 71.1691 28.0258 71.1986 28.0127 71.2256C27.9997 71.2477 27.9932 71.26 27.9932 71.2625L27.954 71.3508C28.5593 71.6774 28.9402 71.8407 29.0968 71.8407C29.1228 71.8407 29.145 71.8383 29.1633 71.8334ZM23.0622 70.5L22.3147 71.2035L21.5633 70.4963L22.3108 69.7928L23.0622 70.5ZM15.5145 71.7818H15.9966C16.1062 71.7818 16.2145 71.7775 16.3214 71.7689C16.4284 71.7603 16.5289 71.7425 16.6228 71.7155C16.7167 71.6885 16.7995 71.6504 16.8713 71.6013C16.943 71.5522 16.9985 71.4884 17.0376 71.4098C17.0663 71.3558 17.0807 71.2747 17.0807 71.1667C17.0807 71.1028 17.067 71.0132 17.0396 70.8978C17.0122 70.7824 16.9743 70.6547 16.9261 70.5147C16.8778 70.3748 16.8217 70.2299 16.7578 70.0801C16.6939 69.9303 16.6267 69.7904 16.5562 69.6602L17.4603 69.2403C17.5255 69.3803 17.5907 69.5289 17.6559 69.686C17.7212 69.8432 17.7792 70.0046 17.8301 70.1704C17.881 70.3361 17.9221 70.5025 17.9534 70.6694C17.9847 70.8364 18.0003 70.9997 18.0003 71.1593C18.0003 71.3975 17.9573 71.6099 17.8712 71.7965C17.772 72.0126 17.6325 72.19 17.4524 72.3288C17.2724 72.4675 17.0585 72.5712 16.8106 72.64C16.6619 72.6793 16.5178 72.7032 16.3782 72.7118C16.2386 72.7204 16.1088 72.7247 15.9888 72.7247H15.4174C15.4097 72.7247 15.4021 72.7246 15.3946 72.7243C15.1167 72.7201 14.8764 72.6852 14.6739 72.6197C14.4573 72.5498 14.2708 72.4436 14.1142 72.3011C14.0203 72.2127 13.9479 72.1176 13.897 72.0157C13.8462 71.9138 13.809 71.8143 13.7855 71.7173C13.762 71.6203 13.7483 71.5283 13.7444 71.4411C13.7405 71.3539 13.7385 71.2784 13.7385 71.2146C13.7411 71.136 13.7444 71.0059 13.7483 70.8241C13.7522 70.6424 13.7542 70.4227 13.7542 70.1648C13.7542 70.0101 13.7535 69.845 13.7522 69.6694C13.7509 69.4939 13.749 69.3152 13.7464 69.1335C13.7438 68.9518 13.7392 68.7695 13.7327 68.5865C13.7261 68.4036 13.717 68.2274 13.7053 68.058C13.6935 67.8886 13.6792 67.7296 13.6622 67.581C13.6453 67.4324 13.625 67.3005 13.6016 67.1851L14.5838 66.9088C14.6125 67.0512 14.6373 67.2231 14.6582 67.4245C14.6791 67.6258 14.696 67.8401 14.7091 68.0672C14.7221 68.2943 14.7326 68.5264 14.7404 68.7633C14.7482 69.0003 14.7521 69.2256 14.7521 69.4392C14.7521 69.5031 14.7528 69.5706 14.7541 69.6418C14.7554 69.713 14.7567 69.7836 14.758 69.8536C14.7593 69.9236 14.76 69.9917 14.76 70.058V70.2385C14.76 70.3318 14.7593 70.4196 14.758 70.5019C14.7567 70.5841 14.7554 70.6633 14.7541 70.7394C14.7528 70.8155 14.7515 70.8904 14.7502 70.9641C14.7489 71.0378 14.7482 71.1127 14.7482 71.1888C14.7456 71.2821 14.7482 71.3699 14.756 71.4521C14.7639 71.5344 14.79 71.5952 14.8343 71.6345C14.9282 71.7278 15.1226 71.7757 15.4174 71.7781H15.4526C15.4736 71.7781 15.4942 71.7793 15.5145 71.7818ZM17.3429 73.9991L16.5954 74.7026L15.844 73.9955L16.5915 73.2919L17.3429 73.9991Z" fill="white"/>
<path d="M62.2301 71.7818H62.8367C62.9645 71.7818 63.1002 71.7775 63.2437 71.7689C63.3872 71.7603 63.5248 71.7431 63.6565 71.7173C63.7883 71.6916 63.9076 71.6559 64.0146 71.6105C64.1216 71.5651 64.2012 71.5068 64.2533 71.4356C64.2925 71.3815 64.3127 71.3091 64.314 71.2183C64.3153 71.1274 64.3023 71.0279 64.2749 70.9199C64.2475 70.8119 64.2109 70.6983 64.1653 70.5792C64.1196 70.4601 64.0707 70.3447 64.0185 70.233C63.9663 70.1212 63.9148 70.0157 63.8639 69.9162C63.8131 69.8168 63.7707 69.7327 63.7368 69.6639L64.6486 69.2403C64.719 69.3582 64.7888 69.5 64.858 69.6657C64.9271 69.8315 64.9878 70.0028 65.04 70.1796C65.0921 70.3564 65.1345 70.5307 65.1671 70.7026C65.1998 70.8745 65.2161 71.0267 65.2161 71.1593C65.2161 71.3975 65.173 71.6099 65.0869 71.7965C64.9878 72.0126 64.8482 72.19 64.6682 72.3288C64.4881 72.4675 64.2742 72.5712 64.0264 72.64C63.9507 72.6596 63.8561 72.675 63.7426 72.686C63.6291 72.6971 63.5137 72.7057 63.3963 72.7118C63.2789 72.718 63.1673 72.7216 63.0617 72.7229C62.956 72.7241 62.8745 72.7247 62.8171 72.7247H62.2144C62.2063 72.7247 62.1983 72.7246 62.1904 72.7242C62.1706 72.7239 62.1486 72.7235 62.1244 72.7229C62.0748 72.7216 62.0207 72.7161 61.962 72.7063C61.9033 72.6965 61.84 72.6811 61.7722 72.6603C61.7043 72.6394 61.6378 72.6093 61.5726 72.57C61.5387 72.8794 61.4389 73.1759 61.2732 73.4595C61.1075 73.7431 60.8982 74.009 60.6451 74.257C60.392 74.505 60.1083 74.7321 59.7939 74.9384C59.4795 75.1446 59.1567 75.3251 58.8253 75.4798L58.387 74.629C58.5696 74.5406 58.7529 74.4448 58.9369 74.3417C59.1208 74.2385 59.2962 74.1287 59.4632 74.012C59.6302 73.8954 59.7861 73.772 59.9309 73.6419C60.0757 73.5117 60.2009 73.3773 60.3066 73.2385C60.4122 73.0998 60.4957 72.9568 60.557 72.8094C60.6184 72.6621 60.649 72.5111 60.649 72.3564C60.649 72.3367 60.6484 72.3165 60.6471 72.2956C60.6457 72.2747 60.6438 72.2545 60.6412 72.2348V72.2385C60.6229 72.101 60.5923 71.9617 60.5492 71.8205C60.5062 71.6793 60.4599 71.5424 60.4103 71.4098C60.3607 71.2772 60.3111 71.1501 60.2616 71.0286C60.212 70.907 60.1703 70.7971 60.1363 70.6989L61.0756 70.3306C61.1773 70.6179 61.2732 70.8554 61.3632 71.0433C61.4532 71.2311 61.5439 71.3797 61.6352 71.489C61.7265 71.5982 61.8198 71.6744 61.915 71.7173C62.0103 71.7603 62.1153 71.7818 62.2301 71.7818ZM62.9267 74.5627L62.2614 73.9328L62.9345 73.303L63.5998 73.9292L62.9267 74.5627ZM64.406 74.5553L63.7407 73.9292L64.4138 73.2956L65.0791 73.9255L64.406 74.5553ZM63.6741 74.4153L64.2846 74.9899L63.6702 75.5682L63.0597 74.9936L63.6741 74.4153ZM55.2797 71.2772C55.3788 71.3361 55.4982 71.3963 55.6378 71.4577C55.7774 71.5191 55.9222 71.5749 56.0722 71.6253C56.2222 71.6756 56.3696 71.7161 56.5144 71.7468C56.6592 71.7775 56.7864 71.7928 56.896 71.7928C56.9612 71.7928 57.0493 71.7898 57.1601 71.7836C57.271 71.7775 57.3799 71.7603 57.4869 71.7321C57.5939 71.7038 57.6865 71.6596 57.7648 71.5995C57.843 71.5393 57.8835 71.454 57.8861 71.3435C57.8887 71.2428 57.86 71.1292 57.8 71.0028C57.74 70.8763 57.6591 70.745 57.5574 70.6087C57.4556 70.4724 57.3382 70.3355 57.2051 70.198C57.0721 70.0605 56.9338 69.9285 56.7903 69.802C56.6468 69.6756 56.5027 69.5589 56.3579 69.4521C56.2131 69.3453 56.0781 69.2551 55.9528 69.1814L56.5359 68.3674C56.776 68.5221 57.0127 68.6964 57.2462 68.8904C57.4797 69.0844 57.695 69.2913 57.892 69.5111C58.0889 69.7308 58.2598 69.9598 58.4046 70.198C58.5494 70.4362 58.6531 70.6768 58.7157 70.9199C58.7836 71.1925 58.7849 71.4442 58.7197 71.675C58.6544 71.9058 58.537 72.1041 58.3674 72.2698C58.1979 72.4356 57.9826 72.5627 57.7217 72.6511C57.4608 72.7394 57.1686 72.7763 56.8451 72.7615C56.6729 72.7615 56.4981 72.7456 56.3207 72.7137C56.1433 72.6817 55.9691 72.6394 55.7982 72.5866C55.6273 72.5338 55.463 72.4724 55.3051 72.4024C55.1473 72.3324 55.0005 72.2582 54.8649 72.1796L55.2797 71.2772ZM53.0216 67.1556L54.0274 66.8462C54.1578 67.7768 54.2257 68.6473 54.2309 69.4576C54.2361 70.7615 54.2165 71.799 54.1722 72.57L53.1468 72.7174C53.2251 71.5829 53.2486 70.6326 53.2173 69.8665C53.1755 68.8646 53.1103 67.961 53.0216 67.1556ZM46.4196 71.7826C46.4299 71.7821 46.4403 71.7818 46.4509 71.7818H47.2257C47.5492 71.7818 47.8786 71.7529 48.2139 71.6952C48.5491 71.6375 48.8824 71.5614 49.2138 71.4669C49.5451 71.3723 49.8686 71.2637 50.1843 71.1409C50.5 71.0181 50.7987 70.8917 51.0805 70.7615C50.8561 70.7149 50.6474 70.6529 50.4544 70.5755C50.2613 70.4982 50.0787 70.4227 49.9065 70.349C49.7343 70.2753 49.5686 70.2115 49.4095 70.1575C49.2503 70.1034 49.0925 70.0764 48.9359 70.0764C48.8446 70.0764 48.7592 70.0918 48.6796 70.1225C48.6 70.1532 48.5263 70.1918 48.4585 70.2385C48.3906 70.2852 48.33 70.3367 48.2765 70.3932C48.223 70.4497 48.1761 70.5043 48.1356 70.5571C48.0952 70.6099 48.0619 70.6572 48.0358 70.6989C48.0097 70.7407 47.9915 70.7701 47.981 70.7873L47.167 70.2901C47.2557 70.1427 47.3614 69.9997 47.484 69.861C47.6066 69.7222 47.743 69.5982 47.893 69.489C48.043 69.3797 48.2054 69.2925 48.3802 69.2274C48.555 69.1624 48.7403 69.1298 48.9359 69.1298C49.1368 69.1298 49.3364 69.155 49.5347 69.2053C49.733 69.2557 49.9293 69.3189 50.1237 69.395C50.318 69.4711 50.5131 69.554 50.7087 69.6436C50.9044 69.7333 51.102 69.8168 51.3016 69.8941C51.5012 69.9715 51.7028 70.0365 51.9063 70.0893C52.1098 70.1421 52.3185 70.1697 52.5324 70.1722L52.4502 71.1225C52.085 71.287 51.7041 71.4613 51.3075 71.6455C50.9109 71.8297 50.4961 72.0003 50.063 72.1575C49.6299 72.3146 49.1773 72.446 48.705 72.5516C48.2328 72.6572 47.7397 72.7149 47.2257 72.7247H46.4509C46.4403 72.7247 46.4299 72.7244 46.4196 72.7239C46.4092 72.7244 46.3988 72.7247 46.3882 72.7247H46.3569C46.1404 72.7247 45.9421 72.7075 45.7621 72.6732C45.5821 72.6388 45.4177 72.5841 45.269 72.5092C45.1203 72.4344 44.9879 72.3386 44.8718 72.2219C44.7557 72.1053 44.6546 71.9647 44.5685 71.8002C43.851 72.4239 42.7774 72.7358 41.3477 72.7358C40.5363 72.7309 39.8625 72.6351 39.3263 72.4485C38.7902 72.2619 38.3956 71.977 38.1425 71.5939C38.0434 71.4368 37.9723 71.2735 37.9292 71.1041C37.8862 70.9346 37.8647 70.7689 37.8647 70.6068C37.8647 70.4079 37.8907 70.2164 37.9429 70.0322V70.0359C37.9742 69.9156 38.0068 69.8106 38.0408 69.721C38.0747 69.6314 38.106 69.5559 38.1347 69.4945C38.1634 69.4331 38.1882 69.3852 38.209 69.3508C38.2299 69.3164 38.2443 69.2931 38.2521 69.2808L39.0074 69.7265C38.9813 69.7707 38.9513 69.8186 38.9174 69.8702C38.8835 69.9217 38.8515 69.9819 38.8215 70.0507C38.7915 70.1194 38.7661 70.2004 38.7452 70.2937C38.7243 70.3871 38.7139 70.4963 38.7139 70.6216C38.7139 70.7075 38.7308 70.7953 38.7648 70.8849C38.7987 70.9745 38.8417 71.0586 38.8939 71.1372C38.967 71.2526 39.0778 71.3509 39.2266 71.4319C39.3753 71.5129 39.5559 71.5792 39.7686 71.6308C39.9812 71.6823 40.2206 71.7204 40.4867 71.745C40.7528 71.7695 41.0398 71.7818 41.3477 71.7818C41.6268 71.7818 41.8916 71.772 42.1421 71.7523C42.3926 71.7327 42.6254 71.7014 42.8407 71.6584C43.0559 71.6154 43.2503 71.5602 43.4238 71.4927C43.5973 71.4251 43.7479 71.3423 43.8758 71.244C43.9906 71.1605 44.0832 71.0636 44.1536 70.9531C44.2241 70.8426 44.2828 70.7265 44.3297 70.605C44.3767 70.4834 44.4158 70.3588 44.4472 70.2311C44.4785 70.1034 44.5124 69.9807 44.5489 69.8628L45.449 70.0912C45.4151 70.2238 45.3792 70.3557 45.3414 70.4871C45.3036 70.6185 45.2859 70.7542 45.2886 70.8941V70.8904C45.2964 71.0255 45.3212 71.1483 45.3629 71.2588C45.4047 71.3693 45.4692 71.4632 45.5566 71.5405C45.644 71.6179 45.7556 71.6774 45.8912 71.7192C46.0269 71.7609 46.1926 71.7818 46.3882 71.7818C46.3988 71.7818 46.4092 71.7821 46.4196 71.7826ZM49.519 67.8812L48.7716 68.5847L48.0202 67.8775L48.7676 67.174L49.519 67.8812ZM41.5903 68.9899L40.925 69.616L40.2519 68.9862L40.9172 68.3563L41.5903 68.9899ZM43.0696 68.9935L42.4043 69.6234L41.7312 68.9899L42.3965 68.3637L43.0696 68.9935ZM34.7909 67.1556L35.7967 66.8462C35.9271 67.7768 35.9949 68.6473 36.0002 69.4576C36.0054 70.7615 35.9858 71.799 35.9415 72.57L34.9161 72.7174C34.9944 71.5829 35.0179 70.6326 34.9866 69.8665C34.9448 68.8646 34.8796 67.961 34.7909 67.1556ZM32.2119 73.885L31.5466 74.5111L30.8735 73.8813L31.5388 73.2514L32.2119 73.885ZM33.6912 73.8886L33.0259 74.5185L32.3528 73.885L33.0181 73.2588L33.6912 73.8886ZM30.8988 71.7818H31.2335C31.3614 71.7818 31.497 71.7775 31.6405 71.7689C31.784 71.7603 31.9216 71.7431 32.0534 71.7173C32.1852 71.6916 32.3045 71.6559 32.4115 71.6105C32.5185 71.5651 32.598 71.5068 32.6502 71.4356C32.6893 71.3815 32.7096 71.3091 32.7109 71.2183C32.7122 71.1274 32.6991 71.0279 32.6717 70.9199C32.6443 70.8119 32.6078 70.6983 32.5622 70.5792C32.5165 70.4601 32.4676 70.3447 32.4154 70.233C32.3632 70.1212 32.3117 70.0157 32.2608 69.9162C32.2099 69.8168 32.1675 69.7327 32.1336 69.6639L33.0455 69.2403C33.1159 69.3582 33.1857 69.5 33.2548 69.6657C33.324 69.8315 33.3846 70.0028 33.4368 70.1796C33.489 70.3564 33.5314 70.5307 33.564 70.7026C33.5966 70.8745 33.6129 71.0267 33.6129 71.1593C33.6129 71.3975 33.5699 71.6099 33.4838 71.7965C33.3846 72.0126 33.2451 72.19 33.065 72.3288C32.885 72.4675 32.6711 72.5712 32.4232 72.64C32.3476 72.6596 32.253 72.675 32.1395 72.686C32.026 72.6971 31.9106 72.7057 31.7932 72.7118C31.6757 72.718 31.5642 72.7216 31.4586 72.7229C31.3529 72.7241 31.2714 72.7247 31.214 72.7247H30.6113C30.5433 72.7247 30.4802 72.7133 30.422 72.6904C30.2112 72.648 30.0474 72.5661 29.9303 72.4448L29.8481 72.3601L29.766 72.4411C29.5729 72.6204 29.3277 72.71 29.0302 72.71C28.8737 72.71 28.6937 72.6781 28.4902 72.6142C28.3258 72.5651 28.151 72.4964 27.9658 72.408C27.7544 72.3073 27.5705 72.2066 27.414 72.1059C27.3409 72.2091 27.2287 72.3134 27.0774 72.419C26.7721 72.6277 26.4265 72.7321 26.0403 72.7321C26.0081 72.7321 25.977 72.7295 25.9471 72.7245C25.6631 72.7206 25.4033 72.6691 25.1676 72.57C25.1702 72.7738 25.152 72.9825 25.1128 73.1962C25.0737 73.4098 25.0098 73.6148 24.9211 73.8113C24.8324 74.0077 24.7182 74.19 24.5786 74.3583C24.439 74.5265 24.2701 74.667 24.0718 74.78H24.0757C23.9531 74.8586 23.8214 74.9261 23.6805 74.9826C23.5396 75.039 23.3902 75.0857 23.2324 75.1225C23.0745 75.1594 22.9082 75.1882 22.7334 75.2091C22.5586 75.23 22.3734 75.2453 22.1777 75.2551C21.742 75.2551 21.3683 75.206 21.0565 75.1078C20.7447 75.0096 20.474 74.8684 20.2444 74.6842C19.9679 74.446 19.7618 74.1655 19.6261 73.8426C19.4904 73.5197 19.4226 73.179 19.4226 72.8205C19.4226 72.6142 19.437 72.4196 19.4657 72.2367C19.4944 72.0537 19.5374 71.8739 19.5948 71.6971C19.6522 71.5203 19.7252 71.3398 19.814 71.1556C19.9027 70.9715 20.007 70.7738 20.127 70.5626L20.9489 71.1225C20.868 71.26 20.7884 71.4104 20.7101 71.5737C20.6319 71.737 20.5634 71.9064 20.5047 72.082C20.446 72.2576 20.4029 72.4337 20.3755 72.6105C20.3481 72.7873 20.3462 72.9568 20.3697 73.1188C20.3801 73.1778 20.399 73.2484 20.4264 73.3306C20.4538 73.4129 20.4942 73.4982 20.5477 73.5866C20.6012 73.675 20.669 73.7628 20.7512 73.85C20.8334 73.9371 20.9332 74.0145 21.0506 74.082C21.168 74.1495 21.3056 74.2048 21.4635 74.2478C21.6213 74.2907 21.8033 74.3122 22.0094 74.3122H22.076C22.089 74.3122 22.102 74.311 22.1151 74.3085C22.376 74.2963 22.6186 74.2717 22.843 74.2349C23.0674 74.198 23.2689 74.1409 23.4476 74.0636C23.6263 73.9862 23.7796 73.8856 23.9075 73.7616C24.0353 73.6376 24.1344 73.4835 24.2049 73.2993C24.2701 73.1274 24.2969 72.9451 24.2851 72.7523C24.2734 72.5596 24.2342 72.3588 24.1677 72.1501C24.1012 71.9414 24.0144 71.7253 23.9075 71.5019C23.8005 71.2784 23.6857 71.0513 23.5631 70.8205L24.4319 70.3011L24.7684 70.9089C24.8858 71.1274 24.9993 71.2956 25.1089 71.4135C25.2185 71.5313 25.3241 71.6179 25.4259 71.6731C25.5277 71.7284 25.6248 71.7603 25.7175 71.7689C25.8101 71.7775 25.8981 71.7818 25.9816 71.7818C26.0038 71.7818 26.0256 71.783 26.0469 71.7855C26.3469 71.7836 26.6147 71.651 26.8504 71.3877C26.9417 71.2846 27.0343 71.1556 27.1283 71.0009C27.1857 70.9027 27.26 70.7652 27.3513 70.5884L27.4492 70.4042C27.6057 70.112 27.774 69.891 27.954 69.7413C28.1653 69.5645 28.4197 69.4761 28.7171 69.4761C29.0746 69.4761 29.389 69.5878 29.6603 69.8112C29.9682 70.0666 30.1443 70.4165 30.1886 70.861V70.8941L30.1925 70.9052V70.9125C30.1951 70.9199 30.1964 70.9285 30.1964 70.9383V70.9567C30.1964 70.9641 30.1978 70.9727 30.2004 70.9825C30.203 71.0095 30.2056 71.0378 30.2082 71.0672C30.2186 71.163 30.2343 71.2502 30.2551 71.3287C30.3308 71.6234 30.5121 71.772 30.7991 71.7744H30.807C30.8387 71.7744 30.8693 71.7769 30.8988 71.7818ZM29.1633 71.8334C29.3537 71.7818 29.4542 71.6308 29.4646 71.3803C29.4751 71.1667 29.4307 70.9764 29.3316 70.8094C29.2455 70.6645 29.1346 70.5516 28.9989 70.4705C28.8554 70.3871 28.7132 70.3588 28.5723 70.3858C28.4863 70.403 28.361 70.5651 28.1967 70.872L28.0558 71.1372C28.0401 71.1691 28.0258 71.1986 28.0127 71.2256C27.9997 71.2477 27.9932 71.26 27.9932 71.2625L27.954 71.3508C28.5593 71.6774 28.9402 71.8407 29.0968 71.8407C29.1228 71.8407 29.145 71.8383 29.1633 71.8334ZM23.0622 70.5L22.3147 71.2035L21.5633 70.4963L22.3108 69.7928L23.0622 70.5ZM15.5145 71.7818H15.9966C16.1062 71.7818 16.2145 71.7775 16.3214 71.7689C16.4284 71.7603 16.5289 71.7425 16.6228 71.7155C16.7167 71.6885 16.7995 71.6504 16.8713 71.6013C16.943 71.5522 16.9985 71.4884 17.0376 71.4098C17.0663 71.3558 17.0807 71.2747 17.0807 71.1667C17.0807 71.1028 17.067 71.0132 17.0396 70.8978C17.0122 70.7824 16.9743 70.6547 16.9261 70.5147C16.8778 70.3748 16.8217 70.2299 16.7578 70.0801C16.6939 69.9303 16.6267 69.7904 16.5562 69.6602L17.4603 69.2403C17.5255 69.3803 17.5907 69.5289 17.6559 69.686C17.7212 69.8432 17.7792 70.0046 17.8301 70.1704C17.881 70.3361 17.9221 70.5025 17.9534 70.6694C17.9847 70.8364 18.0003 70.9997 18.0003 71.1593C18.0003 71.3975 17.9573 71.6099 17.8712 71.7965C17.772 72.0126 17.6325 72.19 17.4524 72.3288C17.2724 72.4675 17.0585 72.5712 16.8106 72.64C16.6619 72.6793 16.5178 72.7032 16.3782 72.7118C16.2386 72.7204 16.1088 72.7247 15.9888 72.7247H15.4174C15.4097 72.7247 15.4021 72.7246 15.3946 72.7243C15.1167 72.7201 14.8764 72.6852 14.6739 72.6197C14.4573 72.5498 14.2708 72.4436 14.1142 72.3011C14.0203 72.2127 13.9479 72.1176 13.897 72.0157C13.8462 71.9138 13.809 71.8143 13.7855 71.7173C13.762 71.6203 13.7483 71.5283 13.7444 71.4411C13.7405 71.3539 13.7385 71.2784 13.7385 71.2146C13.7411 71.136 13.7444 71.0059 13.7483 70.8241C13.7522 70.6424 13.7542 70.4227 13.7542 70.1648C13.7542 70.0101 13.7535 69.845 13.7522 69.6694C13.7509 69.4939 13.749 69.3152 13.7464 69.1335C13.7438 68.9518 13.7392 68.7695 13.7327 68.5865C13.7261 68.4036 13.717 68.2274 13.7053 68.058C13.6935 67.8886 13.6792 67.7296 13.6622 67.581C13.6453 67.4324 13.625 67.3005 13.6016 67.1851L14.5838 66.9088C14.6125 67.0512 14.6373 67.2231 14.6582 67.4245C14.6791 67.6258 14.696 67.8401 14.7091 68.0672C14.7221 68.2943 14.7326 68.5264 14.7404 68.7633C14.7482 69.0003 14.7521 69.2256 14.7521 69.4392C14.7521 69.5031 14.7528 69.5706 14.7541 69.6418C14.7554 69.713 14.7567 69.7836 14.758 69.8536C14.7593 69.9236 14.76 69.9917 14.76 70.058V70.2385C14.76 70.3318 14.7593 70.4196 14.758 70.5019C14.7567 70.5841 14.7554 70.6633 14.7541 70.7394C14.7528 70.8155 14.7515 70.8904 14.7502 70.9641C14.7489 71.0378 14.7482 71.1127 14.7482 71.1888C14.7456 71.2821 14.7482 71.3699 14.756 71.4521C14.7639 71.5344 14.79 71.5952 14.8343 71.6345C14.9282 71.7278 15.1226 71.7757 15.4174 71.7781H15.4526C15.4736 71.7781 15.4942 71.7793 15.5145 71.7818ZM17.3429 73.9991L16.5954 74.7026L15.844 73.9955L16.5915 73.2919L17.3429 73.9991Z" fill="#222852"/>
<path fill-rule="evenodd" clip-rule="evenodd" d="M63.1095 83.7346C63.7636 83.7346 64.2938 84.235 64.2938 84.852V90.86C64.2938 91.4769 63.7636 91.9774 63.1095 91.9774C62.4553 91.9774 61.9251 91.4769 61.9251 90.86V84.852C61.9251 84.235 62.4553 83.7346 63.1095 83.7346ZM22.9838 78.5584C23.0371 82.7228 23.0637 84.8063 23.0637 84.8063V87.1148C23.0637 89.7942 20.775 91.9742 17.9617 91.9742C15.1481 91.9742 12.8594 89.7942 12.8594 87.1148V84.937C12.8594 84.32 13.3892 83.8196 14.0437 83.8196C14.6979 83.8196 15.2281 84.32 15.2281 84.937V87.1148C15.2281 88.562 16.4543 89.7398 17.9617 89.7398C19.4685 89.7398 20.695 88.562 20.695 87.1148V84.8651L20.615 78.5853C20.6071 77.9684 21.1309 77.4622 21.7998 77.4547C22.4474 77.4547 22.9762 77.9459 22.9838 78.5584ZM46.9924 83.7346H52.1271C52.7812 83.7346 53.3115 84.235 53.3115 84.852C53.3115 85.4686 52.7812 85.969 52.1271 85.969H46.9924V86.926C46.9924 89.7094 44.5913 91.974 41.6401 91.974C38.6889 91.974 36.2877 89.7094 36.2877 86.926V84.9368C36.2877 84.3198 36.8176 83.8197 37.4721 83.8197C38.1262 83.8197 38.6565 84.3198 38.6565 84.9368V86.926C38.6565 88.4775 39.995 89.7396 41.6401 89.7396C43.2851 89.7396 44.6237 88.4775 44.6237 86.926V83.2284C44.6237 82.6115 45.1539 82.1114 45.808 82.1114C46.4625 82.1114 46.9924 82.6115 46.9924 83.2284V83.7346ZM27.5763 83.7346H31.8709C32.5251 83.7346 33.0553 84.235 33.0553 84.852C33.0553 85.4686 32.5251 85.969 31.8709 85.969H26.4056C26.3245 85.969 26.2449 85.9612 26.1682 85.9466C26.1473 85.9425 26.1286 85.934 26.1081 85.9289C26.0533 85.9153 25.9982 85.9021 25.9467 85.8817C25.9215 85.8718 25.8991 85.8569 25.8746 85.845C25.8311 85.8243 25.7864 85.8049 25.746 85.7794C25.7223 85.7645 25.7021 85.7448 25.6798 85.7285C25.6427 85.7009 25.6045 85.6748 25.571 85.6439C25.5508 85.6248 25.5353 85.6028 25.517 85.5827C25.486 85.5491 25.4532 85.5165 25.4265 85.4791C25.4103 85.4567 25.3992 85.4315 25.3848 85.4081C25.361 85.3694 25.3358 85.332 25.317 85.2905C25.3048 85.2634 25.2979 85.2338 25.2882 85.2056C25.2734 85.1648 25.2569 85.1251 25.2475 85.0823C25.2403 85.0507 25.24 85.0171 25.2356 84.9848C25.2309 84.945 25.2219 84.9063 25.2216 84.8652L25.142 78.5854C25.134 77.9685 25.6578 77.4623 26.3267 77.4548C26.9744 77.4548 27.5028 77.946 27.5107 78.5586L27.5763 83.7346ZM57.8643 83.7346C58.5184 83.7346 59.0487 84.235 59.0487 84.852V90.86C59.0487 91.4769 58.5184 91.9774 57.8643 91.9774C57.2102 91.9774 56.6799 91.4769 56.6799 90.86V84.852C56.6799 84.235 57.2102 83.7346 57.8643 83.7346ZM41.6391 85.9013C41.3473 85.9013 41.0591 85.7892 40.8538 85.5956C40.6449 85.3985 40.526 85.1268 40.526 84.8516C40.526 84.5764 40.6449 84.3046 40.8538 84.111C41.2644 83.7203 42.0137 83.7169 42.4279 84.111C42.6332 84.3046 42.7521 84.5764 42.7521 84.8516C42.7521 85.1268 42.6332 85.3985 42.4279 85.5956C42.219 85.7892 41.9344 85.9013 41.6391 85.9013ZM63.1074 82.392C62.8156 82.392 62.5278 82.2799 62.3221 82.0862C62.1168 81.8892 61.9943 81.6174 61.9943 81.3422C61.9943 81.0671 62.1168 80.7953 62.3221 80.6016C62.5815 80.357 62.9669 80.2449 63.3271 80.3129C63.3995 80.3265 63.4676 80.3468 63.536 80.374C63.6009 80.4012 63.6661 80.4318 63.7273 80.4691C63.7885 80.5099 63.8462 80.5541 63.8962 80.6016C64.1019 80.7953 64.2208 81.0671 64.2208 81.3422C64.2208 81.6208 64.1019 81.8892 63.8962 82.0862C63.8462 82.1338 63.7885 82.178 63.7273 82.2153C63.6661 82.2527 63.6009 82.2867 63.536 82.3138C63.4676 82.3376 63.3959 82.358 63.3271 82.3716C63.2551 82.3852 63.1794 82.392 63.1074 82.392ZM30.2934 90.4095C30.3222 90.4741 30.3402 90.5386 30.3546 90.6066C30.369 90.6745 30.3798 90.7425 30.3798 90.8104C30.3798 90.8783 30.369 90.9497 30.3546 91.0176C30.3402 91.0822 30.3222 91.1501 30.2934 91.2113C30.2646 91.2758 30.2321 91.337 30.1929 91.3947C30.1497 91.4525 30.1028 91.5034 30.052 91.5544C30.0016 91.602 29.944 91.6461 29.8827 91.6835C29.8215 91.7209 29.757 91.7548 29.6918 91.782C29.6238 91.8058 29.555 91.8262 29.4829 91.8398C29.4109 91.8534 29.3392 91.8602 29.2668 91.8602C29.1947 91.8602 29.1191 91.8534 29.0471 91.8398C28.979 91.8262 28.9066 91.8058 28.8421 91.782C28.7733 91.7548 28.7088 91.7209 28.6476 91.6835C28.5864 91.6461 28.5287 91.602 28.4779 91.5544C28.4275 91.5034 28.3807 91.4525 28.341 91.3947C28.3018 91.337 28.2654 91.2758 28.2366 91.2113C28.2117 91.1501 28.1898 91.0822 28.1754 91.0176C28.1609 90.9497 28.1541 90.8783 28.1541 90.8104C28.1541 90.7425 28.1609 90.6745 28.1754 90.6066C28.1898 90.5386 28.2117 90.4741 28.2366 90.4095C28.2654 90.3484 28.3018 90.2872 28.341 90.2295C28.3807 90.1717 28.4275 90.1174 28.4779 90.0698C28.5287 90.0222 28.5864 89.9781 28.6476 89.9373C28.7088 89.8999 28.7733 89.8694 28.8381 89.8422C28.9066 89.815 28.979 89.7946 29.0471 89.781C29.1911 89.7539 29.3392 89.7539 29.4829 89.781C29.555 89.7946 29.6238 89.815 29.6918 89.8422C29.757 89.8694 29.8215 89.8999 29.8827 89.9373C29.944 89.9781 30.0016 90.0222 30.052 90.0698C30.1028 90.1174 30.1497 90.1717 30.1929 90.2295C30.2321 90.2872 30.2646 90.3484 30.2934 90.4095ZM49.3946 87.8171H52.5799C53.0921 87.8171 53.5071 88.2088 53.5071 88.6919C53.5071 89.175 53.0921 89.5664 52.5799 89.5664H49.3946C48.8824 89.5664 48.4674 89.175 48.4674 88.6919C48.4674 88.2088 48.8824 87.8171 49.3946 87.8171ZM30.8587 87.4669C31.3709 87.4669 31.7859 87.8586 31.7859 88.3417C31.7859 88.8248 31.3709 89.2162 30.8587 89.2162H27.6734C27.1611 89.2162 26.7462 88.8248 26.7462 88.3417C26.7462 87.8586 27.1611 87.4669 27.6734 87.4669H30.8587ZM14.2405 12.1027H28.6251C29.8423 12.1027 30.4627 13.4816 29.6082 14.2915L15.2588 27.8513C14.3926 28.6721 12.9062 28.103 12.9062 26.9539L12.8594 13.3941C12.8594 12.6827 13.468 12.1027 14.2405 12.1027ZM62.9346 60.5116H48.529C47.311 60.5116 46.6903 59.1326 47.5452 58.3227L61.8923 44.7629C62.7589 43.9421 64.2462 44.5112 64.2462 45.6604L64.2932 59.2202C64.3166 59.9315 63.6959 60.5116 62.9346 60.5116ZM14.9999 48.7804L51.8389 14.1168C54.6929 11.4313 59.3119 11.4313 62.1534 14.1168C65.0073 16.8023 65.0073 21.1484 62.1534 23.8222L25.3143 58.4975C22.4728 61.1829 17.8413 61.1829 14.9999 58.4975C12.1459 55.8119 12.1459 51.4658 14.9999 48.7804Z" fill="#222852"/>
</g>
<defs>
<linearGradient id="paint0_linear_62_11804" x1="0" y1="0" x2="137.148" y2="10286.1" gradientUnits="userSpaceOnUse">
<stop stop-color="#FFEE00"/>
<stop offset="1" stop-color="#FFCE00"/>
</linearGradient>
<clipPath id="clip0_62_11804">
<rect width="77.1517" height="102.869" fill="white"/>
</clipPath>
</defs>
</svg>
